<svg width="29" height="29" viewBox="0 0 29 29" fill="none" xmlns="http://www.w3.org/2000/svg">
<g clip-path="url(#clip0_1113_2)">
<path d="M28.6056 25.0724L22.9581 19.4258C22.7032 19.171 22.3577 19.0294 21.9952 19.0294H21.0719C22.6352 17.0302 23.5642 14.5156 23.5642 11.7801C23.5642 5.27273 18.2906 0 11.7821 0C5.27363 0 0 5.27273 0 11.7801C0 18.2875 5.27363 23.5602 11.7821 23.5602C14.5181 23.5602 17.0331 22.6314 19.0326 21.0683V21.9914C19.0326 22.3539 19.1743 22.6993 19.4292 22.9542L25.0766 28.6007C25.6091 29.1331 26.4701 29.1331 26.9969 28.6007L28.5999 26.9979C29.1324 26.4656 29.1324 25.6047 28.6056 25.0724ZM11.7821 19.0294C7.77733 19.0294 4.53158 15.7899 4.53158 11.7801C4.53158 7.776 7.77166 4.53081 11.7821 4.53081C15.7869 4.53081 19.0326 7.77033 19.0326 11.7801C19.0326 15.7842 15.7926 19.0294 11.7821 19.0294Z" fill="#0A0F14"/>
</g>
<defs>
<clipPath id="clip0_1113_2">
<rect width="29" height="29" fill="white"/>
</clipPath>
</defs>
</svg>
