<svg width="22" height="22" viewBox="0 0 277 277" fill="none" xmlns="http://www.w3.org/2000/svg">
<g clip-path="url(#clip0_416_2)">
<path d="M138.5 155.812C181.511 155.812 216.406 120.917 216.406 77.9062C216.406 34.8955 181.511 0 138.5 0C95.4893 0 60.5938 34.8955 60.5938 77.9062C60.5938 120.917 95.4893 155.812 138.5 155.812ZM207.75 173.125H177.94C165.929 178.643 152.566 181.781 138.5 181.781C124.434 181.781 111.125 178.643 99.06 173.125H69.25C31.0002 173.125 0 204.125 0 242.375V251.031C0 265.368 11.6318 277 25.9688 277H251.031C265.368 277 277 265.368 277 251.031V242.375C277 204.125 246 173.125 207.75 173.125Z" fill="black"/>
</g>
<defs>
<clipPath id="clip0_416_2">
<rect width="277" height="277" fill="white"/>
</clipPath>
</defs>
</svg>
