<svg width="50" height="50" viewBox="0 0 50 50" fill="none" xmlns="http://www.w3.org/2000/svg">
<rect width="50" height="50" rx="8" fill="#E76F51"/>
<path d="M22.956 11.524L19.968 11.416C19.968 11.884 19.932 12.532 19.86 13.18C19.536 16.276 18.816 22.108 18.816 27.04C18.816 31.612 19.788 36.724 20.832 39.928L23.46 39.136C22.344 35.752 21.336 31.432 21.336 26.752C21.336 21.82 21.948 16.132 22.56 13.108C22.668 12.604 22.812 11.956 22.956 11.524ZM17.16 15.952C15.612 15.952 12.48 15.736 11.22 15.52L11.292 18.22C12.768 18.292 15.576 18.436 17.124 18.436C22.488 18.436 29.58 17.896 34.764 16.996L34.728 14.332C29.76 15.448 23.496 15.952 17.16 15.952ZM32.172 20.2L29.292 19.48C29.256 20.056 29.076 21.028 28.932 21.568C27.276 27.4 24.324 31.288 21.12 34.096C18.816 36.112 16.476 37.12 14.676 37.12C13.344 37.12 12.624 36.4 12.624 34.924C12.624 31.612 15.864 27.652 19.932 25.852C21.768 25.024 24.432 24.16 27.456 24.16C32.82 24.16 35.772 27.22 35.772 30.712C35.772 35.356 31.74 38.704 25.26 39.424L26.808 41.836C35.16 40.504 38.58 36.004 38.58 30.856C38.58 25.816 34.296 21.856 27.492 21.856C25.152 21.856 22.236 22.396 19.824 23.332C14.496 25.384 9.924 30.46 9.924 35.392C9.924 38.452 11.796 39.892 14.172 39.892C16.728 39.892 19.608 38.56 21.912 36.796C25.692 33.88 29.292 28.876 31.416 22.216C31.632 21.64 31.956 20.668 32.172 20.2Z" fill="black"/>
</svg>
